<?xml version="1.0" encoding="UTF-8" standalone="no"?>
<!-- Created with Inkscape (http://www.inkscape.org/) -->

<svg
   xmlns:dc="http://purl.org/dc/elements/1.1/"
   xmlns:cc="http://creativecommons.org/ns#"
   xmlns:rdf="http://www.w3.org/1999/02/22-rdf-syntax-ns#"
   xmlns:svg="http://www.w3.org/2000/svg"
   xmlns="http://www.w3.org/2000/svg"
   xmlns:sodipodi="http://sodipodi.sourceforge.net/DTD/sodipodi-0.dtd"
   xmlns:inkscape="http://www.inkscape.org/namespaces/inkscape"
   width="240"
   height="230"
   id="svg2"
   version="1.1"
   inkscape:version="0.48.4 r9939"
   sodipodi:docname="muffin_spy.svg"
   inkscape:export-filename="/var/www/html/Muffin_devel/Templates/Muffin/img/muffin_spy.png"
   inkscape:export-xdpi="327.10641"
   inkscape:export-ydpi="327.10641">
  <defs
     id="defs4" />
  <sodipodi:namedview
     id="base"
     pagecolor="#ffffff"
     bordercolor="#666666"
     borderopacity="1.0"
     inkscape:pageopacity="0.0"
     inkscape:pageshadow="2"
     inkscape:zoom="1.979899"
     inkscape:cx="-32.698619"
     inkscape:cy="110.50128"
     inkscape:document-units="px"
     inkscape:current-layer="muffin_grp"
     showgrid="false"
     inkscape:window-width="1920"
     inkscape:window-height="1021"
     inkscape:window-x="0"
     inkscape:window-y="27"
     inkscape:window-maximized="1"
     fit-margin-top="0"
     fit-margin-left="0"
     fit-margin-right="0"
     fit-margin-bottom="0" />
  <metadata
     id="metadata7">
    <rdf:RDF>
      <cc:Work
         rdf:about="">
        <dc:format>image/svg+xml</dc:format>
        <dc:type
           rdf:resource="http://purl.org/dc/dcmitype/StillImage" />
        <dc:title></dc:title>
      </cc:Work>
    </rdf:RDF>
  </metadata>
  <g
     inkscape:groupmode="layer"
     id="layer2"
     inkscape:label="fond"
     style="display:inline"
     transform="translate(-337.07141,-431.00504)" />
  <g
     inkscape:label="Calque 1"
     inkscape:groupmode="layer"
     id="layer1">
    <g
       id="muffin_grp"
       transform="matrix(0.56767676,0,0,0.56767676,-150.95675,-198.41725)"
       inkscape:export-filename="/var/www/html/Muffin_devel/Templates/Muffin/img/muffin_spy.png"
       inkscape:export-xdpi="245.44714"
       inkscape:export-ydpi="245.44714">
      <g
         id="g3868"
         transform="matrix(0.98185667,-0.18962457,0.18962457,0.98185667,-141.052,72.259714)">
        <path
           sodipodi:nodetypes="cccc"
           transform="matrix(1.7615659,0,0,1.7615659,265.92026,349.52505)"
           inkscape:connector-curvature="0"
           id="path3079"
           d="M -9.8489873,157.01648 C -6.4618715,326.1235 103.99946,147.46675 167.18025,116.86291 L 111.36932,93.376868 C 78.323707,122.32902 16.899227,124.30398 -9.8489873,157.01648 z"
           style="fill:#9e4838;fill-opacity:1;stroke:#341510;stroke-width:0.39999998;stroke-linecap:butt;stroke-linejoin:miter;stroke-miterlimit:4;stroke-opacity:1;stroke-dasharray:none" />
        <path
           sodipodi:nodetypes="cccc"
           transform="matrix(1.7615659,0,0,1.7615659,265.92026,349.52505)"
           inkscape:connector-curvature="0"
           id="path3077"
           d="M 106.06602,88.073567 C 65.259333,152.61477 -41.805018,66.799096 -35.355339,226.46447 -23.302679,122.91876 61.771648,133.44628 114.14724,94.639559 z"
           style="fill:#d95b43;fill-opacity:1;stroke:#502119;stroke-width:0.59999996;stroke-linecap:butt;stroke-linejoin:miter;stroke-miterlimit:4;stroke-opacity:1;stroke-dasharray:none" />
        <path
           sodipodi:nodetypes="cccc"
           transform="matrix(1.7615659,0,0,1.7615659,265.92026,349.52505)"
           inkscape:connector-curvature="0"
           id="path3081"
           d="m 47.685499,217.81026 c 33.099295,-2.88902 34.503608,15.30319 27.570866,36.4334 52.481245,-50.42691 62.366055,-91.99824 92.013165,-137.61797 -28.66274,5.36401 -96.680933,83.79849 -119.584031,101.18457 z"
           style="fill:#9e4838;fill-opacity:1;stroke:#31140f;stroke-width:0.5;stroke-linecap:butt;stroke-linejoin:miter;stroke-miterlimit:4;stroke-opacity:1;stroke-dasharray:none" />
      </g>
      <path
         sodipodi:nodetypes="zszszz"
         inkscape:connector-curvature="0"
         id="muffin_interieur"
         d="m 482.14286,442.36218 c 51.78571,-1.07142 101.48063,37.47556 92.85714,72.14285 -13.23736,53.21549 -16.74655,76.25817 -25.71428,97.85715 -8.96773,21.59897 -127.4975,25.91539 -137.14286,-2.14286 -7.6401,-22.22497 -17.47206,-69.71207 -25.71429,-92.85714 -8.24223,-23.14507 43.92858,-73.92858 95.71429,-75 z"
         style="fill:#b89056;fill-opacity:1;stroke:none" />
      <path
         style="fill:#83391c;fill-opacity:1"
         inkscape:connector-curvature="0"
         d="m 575.9951,512.73486 q 0,7.73126 -1.65459,13.98457 -1.6546,6.25331 -4.05111,10.94624 -2.39652,4.69293 -7.3603,8.19054 -4.96379,3.49762 -8.92657,5.88824 -3.96279,2.39063 -11.68227,3.9569 -7.71948,1.56627 -12.78926,2.39062 -5.06977,0.82436 -14.99735,1.19532 -9.92757,0.37096 -15.63916,0.45928 -5.7116,0.0883 -17.11123,0.0942 -11.39963,0.006 -17.11122,-0.0942 -5.7116,-0.1001 -15.63917,-0.45928 -9.92757,-0.35919 -14.99735,-1.19532 -5.06977,-0.83613 -12.78925,-2.39062 -7.71949,-1.5545 -11.68227,-3.9569 -3.96279,-2.4024 -8.92658,-5.88824 -4.96378,-3.48584 -7.3603,-8.19054 -2.39651,-4.7047 -4.0511,-10.94624 -1.6546,-6.24153 -1.6546,-13.98457 0,-12.88347 7.17776,-25.4843 7.17777,-12.60084 19.87282,-22.72272 l -3.49762,-10.67538 33.85738,-5.7057 q 17.66472,-6.07078 36.8015,-6.07078 33.12135,0 59.80097,17.29965 l 10.85791,-5.52317 17.66472,35.32944 -0.18253,0.18254 q 6.07077,11.77648 6.07077,23.37042 z m -15.27409,-17.29376 -8.27887,5.52317 -35.32944,-29.4412 12.51251,-6.2592 q -21.89836,-11.41141 -47.84195,-11.41141 -14.53806,0 -28.70517,3.86269 l 5.15221,7.91379 -35.32944,23.55296 -4.59871,-13.6195 q -9.0149,7.54284 -13.98458,16.56362 -4.96967,9.02078 -4.96967,18.21822 0,15.27409 8.46729,23.92392 l 3.31508,-9.75093 35.32944,11.77648 -6.80681,10.30442 q 12.69505,1.47206 42.13625,1.47206 16.92869,0 25.02502,-0.18254 l 4.41618,-17.48218 29.4412,-5.88824 8.46729,14.90314 q 15.09156,-8.64983 15.09156,-29.07613 0,-7.3603 -3.49761,-14.90314 z m -102.49071,11.40552 11.77648,-29.4412 35.32944,11.77648 -5.88824,23.55296 z M 428.05307,622.2208 q -16.92869,-6.62427 -16.92869,-15.2741 L 399.3479,559.84078 q 9.75093,4.96968 24.28899,7.73126 z m 30.17723,6.98934 q -9.56839,-1.28953 -18.03568,-3.31508 l -4.78714,-56.30924 q 10.30442,1.28952 22.81693,1.65459 v 57.96384 z m 35.32944,-57.59288 v 58.51733 q -6.2592,0.37096 -11.77648,0.37096 -5.51728,0 -11.77648,-0.37096 v -58.51733 h 23.55296 z m 29.81216,54.28369 q -8.46729,2.02555 -18.03568,3.31508 v -57.96384 q 12.51251,-0.37096 22.81693,-1.65459 z m 40.84672,-66.06017 -11.77648,47.10592 q 0,8.64983 -16.92869,15.2741 l 4.41618,-54.64876 q 14.53807,-2.76158 24.28899,-7.73126 z"
         id="muffin_pepites" />
      <path
         style="fill:#28120f;fill-opacity:1;stroke:none"
         d="m 413.02636,466.40708 c 51.72194,13.51188 92.70986,9.74077 145.26727,-0.98186 7.35264,8.22476 11.25637,15.91342 13.56832,24.68987 -60.12577,12.34007 -113.46487,13.60429 -177.77386,-1.66496 5.31528,-8.00753 8.53191,-14.03553 18.93827,-22.04305 z"
         id="path3873"
         inkscape:connector-curvature="0"
         sodipodi:nodetypes="ccccc" />
      <g
         id="g3893"
         transform="translate(4.0893493,-1.2582613)">
        <path
           sodipodi:nodetypes="ccc"
           inkscape:connector-curvature="0"
           id="eye_right"
           d="m 523.74953,487.50945 c 3.5589,10.75621 -27.82941,9.74938 -31.9766,9.74938 8.72549,-8.95116 23.6425,-36.75498 31.9766,-9.74938 z"
           style="fill:#ffffff;fill-opacity:1;stroke:none" />
        <path
           sodipodi:nodetypes="ccc"
           inkscape:connector-curvature="0"
           id="eye_left"
           d="m 436.78257,482.91982 c 12.45615,-20.4928 21.38192,14.44865 26.90477,14.44865 -19.7169,-4.28087 -34.94659,1.16679 -26.90477,-14.44865 z"
           style="fill:#ffffff;fill-opacity:1;stroke:none" />
        <path
           transform="translate(7.4517465,-2.8897251)"
           d="m 447.49759,492.2326 c 0,2.78946 -2.6005,5.05077 -5.80838,5.05077 -3.20788,0 -5.80838,-2.26131 -5.80838,-5.05077 0,-2.78945 2.6005,-5.05076 5.80838,-5.05076 3.20788,0 5.80838,2.26131 5.80838,5.05076 z"
           sodipodi:ry="5.0507627"
           sodipodi:rx="5.8083773"
           sodipodi:cy="492.2326"
           sodipodi:cx="441.68921"
           id="pupille_left"
           style="fill:#000000;fill-opacity:1;stroke:none"
           sodipodi:type="arc" />
        <path
           transform="translate(26.801386,-5.1121564)"
           d="m 483.86307,495.76813 c 0,2.78946 -2.14823,5.05076 -4.79822,5.05076 -2.64999,0 -4.79822,-2.2613 -4.79822,-5.05076 0,-2.78946 2.14823,-5.05077 4.79822,-5.05077 2.64999,0 4.79822,2.26131 4.79822,5.05077 z"
           sodipodi:ry="5.0507627"
           sodipodi:rx="4.7982244"
           sodipodi:cy="495.76813"
           sodipodi:cx="479.06485"
           id="pupille_right"
           style="fill:#000000;fill-opacity:1;stroke:none"
           sodipodi:type="arc" />
      </g>
    </g>
  </g>
</svg>
