<?xml version="1.0" encoding="UTF-8" standalone="no"?>
<!-- Created with Inkscape (http://www.inkscape.org/) -->

<svg
   xmlns:dc="http://purl.org/dc/elements/1.1/"
   xmlns:cc="http://creativecommons.org/ns#"
   xmlns:rdf="http://www.w3.org/1999/02/22-rdf-syntax-ns#"
   xmlns:svg="http://www.w3.org/2000/svg"
   xmlns="http://www.w3.org/2000/svg"
   xmlns:sodipodi="http://sodipodi.sourceforge.net/DTD/sodipodi-0.dtd"
   xmlns:inkscape="http://www.inkscape.org/namespaces/inkscape"
   width="240"
   height="230"
   id="svg2"
   version="1.1"
   inkscape:version="0.48.4 r9939"
   sodipodi:docname="base.svg">
  <defs
     id="defs4" />
  <sodipodi:namedview
     id="base"
     pagecolor="#ffffff"
     bordercolor="#666666"
     borderopacity="1.0"
     inkscape:pageopacity="0.0"
     inkscape:pageshadow="2"
     inkscape:zoom="0.7"
     inkscape:cx="-237.70831"
     inkscape:cy="29.579128"
     inkscape:document-units="px"
     inkscape:current-layer="layer2"
     showgrid="false"
     inkscape:window-width="1920"
     inkscape:window-height="1021"
     inkscape:window-x="0"
     inkscape:window-y="27"
     inkscape:window-maximized="1"
     fit-margin-top="0"
     fit-margin-left="0"
     fit-margin-right="0"
     fit-margin-bottom="0" />
  <metadata
     id="metadata7">
    <rdf:RDF>
      <cc:Work
         rdf:about="">
        <dc:format>image/svg+xml</dc:format>
        <dc:type
           rdf:resource="http://purl.org/dc/dcmitype/StillImage" />
        <dc:title></dc:title>
      </cc:Work>
    </rdf:RDF>
  </metadata>
  <g
     inkscape:groupmode="layer"
     id="layer2"
     inkscape:label="fond"
     style="display:inline"
     transform="translate(-337.07141,-431.00504)">
    <rect
       style="fill:#d95b43;fill-opacity:1;stroke:#874e00;stroke-width:3;stroke-linecap:round;stroke-linejoin:round;stroke-miterlimit:4;stroke-opacity:1;stroke-dasharray:2.99999997, 11.99999995;stroke-dashoffset:12.29999992"
       id="rect3066"
       width="243.57143"
       height="231.76685"
       x="338.57141"
       y="427.73819"
       rx="0.1000924"
       ry="0.096722059" />
  </g>
  <g
     inkscape:label="Calque 1"
     inkscape:groupmode="layer"
     id="layer1"
     transform="translate(-337.07141,-431.00504)">
    <g
       id="muffin_grp"
       transform="translate(-21.428571,8.5714286)">
      <path
         sodipodi:nodetypes="zszszz"
         inkscape:connector-curvature="0"
         id="muffin_interieur"
         d="m 482.14286,442.36218 c 51.78571,-1.07142 101.48063,37.47556 92.85714,72.14285 -13.23736,53.21549 -16.74655,76.25817 -25.71428,97.85715 -8.96773,21.59897 -127.4975,25.91539 -137.14286,-2.14286 -7.6401,-22.22497 -17.47206,-69.71207 -25.71429,-92.85714 -8.24223,-23.14507 43.92858,-73.92858 95.71429,-75 z"
         style="fill:#833b10;fill-opacity:1;stroke:none" />
      <path
         style="fill:#442308;fill-opacity:1"
         inkscape:connector-curvature="0"
         d="m 575.9951,512.73486 q 0,7.73126 -1.65459,13.98457 -1.6546,6.25331 -4.05111,10.94624 -2.39652,4.69293 -7.3603,8.19054 -4.96379,3.49762 -8.92657,5.88824 -3.96279,2.39063 -11.68227,3.9569 -7.71948,1.56627 -12.78926,2.39062 -5.06977,0.82436 -14.99735,1.19532 -9.92757,0.37096 -15.63916,0.45928 -5.7116,0.0883 -17.11123,0.0942 -11.39963,0.006 -17.11122,-0.0942 -5.7116,-0.1001 -15.63917,-0.45928 -9.92757,-0.35919 -14.99735,-1.19532 -5.06977,-0.83613 -12.78925,-2.39062 -7.71949,-1.5545 -11.68227,-3.9569 -3.96279,-2.4024 -8.92658,-5.88824 -4.96378,-3.48584 -7.3603,-8.19054 -2.39651,-4.7047 -4.0511,-10.94624 -1.6546,-6.24153 -1.6546,-13.98457 0,-12.88347 7.17776,-25.4843 7.17777,-12.60084 19.87282,-22.72272 l -3.49762,-10.67538 33.85738,-5.7057 q 17.66472,-6.07078 36.8015,-6.07078 33.12135,0 59.80097,17.29965 l 10.85791,-5.52317 17.66472,35.32944 -0.18253,0.18254 q 6.07077,11.77648 6.07077,23.37042 z m -15.27409,-17.29376 -8.27887,5.52317 -35.32944,-29.4412 12.51251,-6.2592 q -21.89836,-11.41141 -47.84195,-11.41141 -14.53806,0 -28.70517,3.86269 l 5.15221,7.91379 -35.32944,23.55296 -4.59871,-13.6195 q -9.0149,7.54284 -13.98458,16.56362 -4.96967,9.02078 -4.96967,18.21822 0,15.27409 8.46729,23.92392 l 3.31508,-9.75093 35.32944,11.77648 -6.80681,10.30442 q 12.69505,1.47206 42.13625,1.47206 16.92869,0 25.02502,-0.18254 l 4.41618,-17.48218 29.4412,-5.88824 8.46729,14.90314 q 15.09156,-8.64983 15.09156,-29.07613 0,-7.3603 -3.49761,-14.90314 z m -102.49071,11.40552 11.77648,-29.4412 35.32944,11.77648 -5.88824,23.55296 z M 428.05307,622.2208 q -16.92869,-6.62427 -16.92869,-15.2741 L 399.3479,559.84078 q 9.75093,4.96968 24.28899,7.73126 z m 30.17723,6.98934 q -9.56839,-1.28953 -18.03568,-3.31508 l -4.78714,-56.30924 q 10.30442,1.28952 22.81693,1.65459 v 57.96384 z m 35.32944,-57.59288 v 58.51733 q -6.2592,0.37096 -11.77648,0.37096 -5.51728,0 -11.77648,-0.37096 v -58.51733 h 23.55296 z m 29.81216,54.28369 q -8.46729,2.02555 -18.03568,3.31508 v -57.96384 q 12.51251,-0.37096 22.81693,-1.65459 z m 40.84672,-66.06017 -11.77648,47.10592 q 0,8.64983 -16.92869,15.2741 l 4.41618,-54.64876 q 14.53807,-2.76158 24.28899,-7.73126 z"
         id="muffin_pepites" />
    </g>
    <path
       sodipodi:type="arc"
       style="fill:#ffffff;fill-opacity:1;stroke:none"
       id="eye_left"
       sodipodi:cx="431.42856"
       sodipodi:cy="509.86218"
       sodipodi:rx="15"
       sodipodi:ry="15.357142"
       d="m 446.42856,509.86218 c 0,8.48152 -6.71573,15.35715 -15,15.35715 -8.28427,0 -15,-6.87563 -15,-15.35715 0,-8.48151 6.71573,-15.35714 15,-15.35714 8.28427,0 15,6.87563 15,15.35714 z"
       transform="matrix(0.66666667,0,0,1,152.38095,-10.714286)" />
    <path
       sodipodi:type="arc"
       style="fill:#ffffff;fill-opacity:1;stroke:none"
       id="eye_right"
       sodipodi:cx="481.78571"
       sodipodi:cy="503.43362"
       sodipodi:rx="16.071428"
       sodipodi:ry="13.928572"
       d="m 497.85713,503.43362 c 0,7.69254 -7.19542,13.92858 -16.07142,13.92858 -8.87601,0 -16.07143,-6.23604 -16.07143,-13.92858 0,-7.69253 7.19542,-13.92857 16.07143,-13.92857 8.876,0 16.07142,6.23604 16.07142,13.92857 z"
       transform="matrix(0.46723645,0,0,1.0512821,254.54416,-27.959966)" />
    <path
       style="fill:#530818;fill-opacity:1;stroke:none"
       d="m 475,526.91756 c 0,14.44717 -8.79441,26.15894 -19.64286,26.15894 -10.84845,0 -19.64286,-11.71177 -19.64286,-26.15894 0,-14.44719 10.93727,6.29011 21.78572,6.29011 10.84845,0 17.5,-20.7373 17.5,-6.29011 z"
       id="bouche"
       inkscape:connector-curvature="0"
       sodipodi:nodetypes="sssss" />
    <path
       style="fill:#f48fa4;fill-opacity:1;stroke:none"
       d="m 439.64286,542.18361 c 0,0 43.57143,-15.35714 30,2.32143 -13.57143,17.67857 -26.42857,2.85714 -26.42857,2.85714 z"
       id="langue"
       inkscape:connector-curvature="0" />
    <path
       sodipodi:type="arc"
       style="fill:#000000;fill-opacity:1;stroke:none"
       id="pupille_left"
       sodipodi:cx="441.68921"
       sodipodi:cy="492.2326"
       sodipodi:rx="5.8083773"
       sodipodi:ry="5.0507627"
       d="m 447.49759,492.2326 c 0,2.78946 -2.6005,5.05077 -5.80838,5.05077 -3.20788,0 -5.80838,-2.26131 -5.80838,-5.05077 0,-2.78945 2.6005,-5.05076 5.80838,-5.05076 3.20788,0 5.80838,2.26131 5.80838,5.05076 z"
       transform="translate(-2,8)" />
    <path
       sodipodi:type="arc"
       style="fill:#000000;fill-opacity:1;stroke:none"
       id="path3887"
       sodipodi:cx="479.06485"
       sodipodi:cy="495.76813"
       sodipodi:rx="4.7982244"
       sodipodi:ry="5.0507627"
       d="m 483.86307,495.76813 c 0,2.78946 -2.14823,5.05076 -4.79822,5.05076 -2.64999,0 -4.79822,-2.2613 -4.79822,-5.05076 0,-2.78946 2.14823,-5.05077 4.79822,-5.05077 2.64999,0 4.79822,2.26131 4.79822,5.05077 z"
       transform="translate(0,6)" />
  </g>
</svg>
